# xmcd
# 
# Track frame offsets:
#     150
#     22590
#     39793
#     66833
#     90413
#     111903
#     130898
#     149928
#     164328
#     179960
#     197453
#     215428
# 
# Disc length: 3304
# 
# Revision: 0
# Processed by: cddbd v1.5.2PL0 Copyright (c) Steve Scherf et al.
# Submitted via: BonkEnc v1.0
# 
DISCID=a90ce60c
DTITLE=Ella Fitzgerald and Louis Armstrong - Ella And Louis Again
DYEAR=1957
DGENRE=Jazz
TTITLE0=Don't Be That Way
TTITLE1=They All Laughed
TTITLE2=Autumn in New York
TTITLE3=Stompin' at the Savoy
TTITLE4=I Won't Dance
TTITLE5=Gee Baby Ain't I Good to You
TTITLE6=Let's Call the Whole Thing Off
TTITLE7=I've Got My Love to Keep Me Warm
TTITLE8=I'm Putting All My Eggs in One Basket
TTITLE9=A Fine Romance
TTITLE10=Love is Here to Stay
TTITLE11=Learnin' the Blues
EXTD=YEAR: 1957
EXTT0=
EXTT1=
EXTT2=
EXTT3=
EXTT4=
EXTT5=
EXTT6=
EXTT7=
EXTT8=
EXTT9=
EXTT10=
EXTT11=
PLAYORDER=
